<?xml version="1.0" encoding="UTF-8"?>
<!-- Generated by Pixelmator Pro 3.6.4 -->
<svg width="800" height="800" viewBox="0 0 800 800" xmlns="http://www.w3.org/2000/svg">
    <path id="Path" fill="#000000" fill-rule="evenodd" stroke="none" d="M 0 0 L 200 0 L 200 200 L 0 200 L 0 0 Z M 0 300 L 200 300 L 200 500 L 0 500 L 0 300 Z M 0 600 L 200 600 L 200 800 L 0 800 L 0 600 Z M 300 0 L 500 0 L 500 200 L 300 200 L 300 0 Z M 300 300 L 500 300 L 500 500 L 300 500 L 300 300 Z M 300 600 L 500 600 L 500 800 L 300 800 L 300 600 Z M 600 0 L 800 0 L 800 200 L 600 200 L 600 0 Z M 600 300 L 800 300 L 800 500 L 600 500 L 600 300 Z M 600 600 L 800 600 L 800 800 L 600 800 L 600 600 Z"/>
</svg>
